<?xml version="1.0" encoding="UTF-8"?>
<!DOCTYPE svg PUBLIC "-//W3C//DTD SVG 1.1//EN" "http://www.w3.org/Graphics/SVG/1.1/DTD/svg11.dtd">
<!-- Creator: CorelDRAW -->
<svg xmlns="http://www.w3.org/2000/svg" xml:space="preserve" width="210mm" height="297mm" version="1.1" style="shape-rendering:geometricPrecision; text-rendering:geometricPrecision; image-rendering:optimizeQuality; fill-rule:evenodd; clip-rule:evenodd"
viewBox="0 0 21000 29700"
 xmlns:xlink="http://www.w3.org/1999/xlink"
 xmlns:xodm="http://www.corel.com/coreldraw/odm/2003">
 <defs>
  <style type="text/css">
   <![CDATA[
    .fil0 {fill:#2B2A29;fill-rule:nonzero}
   ]]>
  </style>
 </defs>
 <g id="Capa_x0020_1">
  <metadata id="CorelCorpID_0Corel-Layer"/>
  <path class="fil0" d="M-30191.52 -32741l6071.44 0 0 6868.11 6648.34 0 0 -6868.11 6098.9 0 0 19670.32 -6098.9 0 0 -7967.02 -6648.34 0 0 7967.02 -6071.44 0 0 -19670.32zm21840.67 12582.43c0,-2179.47 732.59,-3974.36 2197.82,-5384.62 1465.19,-1410.26 3443.23,-2115.39 5934.05,-2115.39 2852.55,0 5004.59,828.77 6460.62,2486.27 1167.58,1336.99 1753.67,2980.78 1753.67,4931.32 0,2197.82 -723.44,3992.67 -2174.91,5398.33 -1451.47,1401.11 -3461.54,2101.64 -6025.63,2101.64 -2284.8,0 -4134.61,-581.49 -5544.87,-1749.08 -1735.33,-1442.32 -2600.71,-3333.34 -2600.71,-5668.51l-0.04 0.04zm5467.04 -9.15c0,1277.47 256.43,2220.68 769.25,2829.68 512.82,608.96 1153.83,915.75 1932.23,915.75 782.96,0 1423.98,-302.2 1927.68,-902 503.66,-599.8 755.5,-1565.96 755.5,-2893.79 0,-1240.85 -251.83,-2161.16 -760.06,-2770.16 -508.26,-604.4 -1135.53,-906.6 -1886.46,-906.6 -792.11,0 -1446.88,306.79 -1964.29,920.35 -517.41,618.15 -773.81,1552.21 -773.81,2806.77l-0.04 0zm13708.8 -12573.28l5467.04 0 0 19670.32 -5467.04 0 0 -19670.32zm13956.04 10027.46l-5219.77 -549.44c196.91,-915.75 480.76,-1634.6 851.64,-2156.6 370.87,-526.57 902,-979.87 1602.57,-1364.45 499.11,-279.3 1185.89,-494.51 2060.43,-645.61 874.54,-151.1 1822.35,-228.93 2843.43,-228.93 1634.63,0 2944.12,91.58 3937.74,274.74 989.02,183.16 1817.75,567.78 2477.11,1149.27 467.05,402.93 833.33,975.27 1098.91,1712.46 270.14,737.19 402.93,1442.32 402.93,2115.39l0 6300.37c0,673.07 41.21,1199.64 128.2,1579.67 82.42,380.03 270.14,865.38 554.03,1456.03l-5114.48 0c-206.03,-366.31 -338.82,-641.02 -402.93,-833.33 -59.52,-192.31 -123.64,-489.92 -187.72,-897.44 -714.29,686.82 -1423.98,1176.74 -2133.7,1469.78 -966.12,393.78 -2087.89,590.65 -3365.36,590.65 -1698.71,0 -2989.93,-393.78 -3869.06,-1185.89 -883.69,-787.55 -1323.24,-1762.83 -1323.24,-2916.66 0,-1085.16 315.95,-1978.04 952.37,-2678.58 636.46,-700.54 1808.6,-1222.51 3516.5,-1561.36 2046.72,-412.09 3374.55,-700.54 3983.51,-869.94 608.99,-164.85 1254.57,-380.03 1932.23,-650.2 0,-673.07 -137.39,-1140.12 -416.68,-1410.26 -274.74,-270.14 -760.06,-402.93 -1456.03,-402.93 -892.85,0 -1561.36,141.95 -2010.06,430.39 -347.97,228.93 -627.3,650.17 -842.48,1272.88l-0.09 -0.01zm4725.29 2857.14c-750.9,270.14 -1533.9,508.22 -2353.48,718.84 -1108.06,297.6 -1813.19,590.65 -2106.24,879.13 -306.79,297.6 -457.89,636.46 -457.89,1016.48 0,434.99 151.1,792.11 448.7,1066.85 302.2,274.74 741.75,412.09 1323.24,412.09 608.99,0 1176.74,-151.1 1703.31,-448.7 521.97,-297.6 892.85,-659.32 1112.66,-1089.75 219.77,-430.39 329.66,-989.02 329.66,-1675.81l0 -879.13 0.04 0zm-45082.41 11591.97l0 19670.31 -5119.04 0 0 -2110.8c-714.29,897.44 -1369.05,1506.4 -1959.7,1822.35 -782.96,412.09 -1662.09,618.15 -2628.21,618.15 -1936.79,0 -3420.33,-737.19 -4445.96,-2216.12 -1021.04,-1478.93 -1533.86,-3278.37 -1533.86,-5389.17 0,-2367.22 567.75,-4175.82 1698.71,-5430.39 1130.97,-1254.57 2564.1,-1881.87 4308.61,-1881.87 851.64,0 1620.88,141.95 2312.26,425.84 695.98,288.45 1309.53,714.29 1845.22,1286.62l0 -6794.88 5521.97 0 0 -0.04zm-5480.76 12486.25c0,-1121.78 -238.08,-1959.7 -709.69,-2509.13 -471.61,-554.03 -1071.45,-828.77 -1794.88,-828.77 -631.86,0 -1162.99,265.58 -1593.38,796.71 -425.84,526.57 -641.02,1414.86 -641.02,2664.83 0,1167.58 219.77,2019.22 663.92,2564.1 439.55,544.88 989.02,815.02 1639.19,815.02 695.98,0 1272.88,-274.74 1739.92,-819.61 462.45,-549.44 695.98,-1442.28 695.98,-2683.14l-0.04 -0.01zm24629.14 1414.86l-10961.55 0c100.73,874.54 334.26,1529.3 714.29,1959.7 526.53,618.15 1217.95,924.9 2069.59,924.9 540.32,0 1053.14,-132.78 1533.9,-398.33 297.6,-169.41 618.15,-467.05 956.96,-892.85l5384.62 494.51c-824.17,1428.56 -1817.75,2458.79 -2980.78,3076.9 -1162.99,622.71 -2834.24,934.06 -5009.15,934.06 -1891.02,0 -3374.55,-265.58 -4459.71,-801.27 -1080.6,-531.13 -1978.04,-1378.2 -2692.33,-2536.62 -709.73,-1163.02 -1066.85,-2527.48 -1066.85,-4093.4 0,-2229.84 714.29,-4038.47 2142.86,-5416.68 1423.98,-1378.2 3397.42,-2069.59 5911.19,-2069.59 2042.12,0 3649.25,311.35 4830.59,929.46 1181.33,618.15 2083.33,1510.99 2701.48,2687.73 618.15,1172.14 924.91,2701.48 924.91,4583.35l0 618.15 -0.02 -0.02zm-5549.43 -2609.9c-105.29,-1062.26 -393.78,-1822.35 -856.23,-2280.21 -462.45,-457.89 -1066.85,-686.82 -1822.35,-686.82 -869.98,0 -1565.96,347.97 -2087.93,1039.39 -329.66,430.39 -540.28,1071.45 -631.86,1927.68l5398.33 0 0.04 -0.04zm-28598.9 18597.46l5091.57 0 0 2321.42c760.06,-952.37 1524.71,-1630.04 2303.11,-2037.56 778.4,-407.53 1721.61,-613.55 2838.83,-613.55 1510.99,0 2687.73,448.7 3543.96,1350.74 851.64,897.44 1277.47,2289.39 1277.47,4171.26l0 9065.93 -5494.51 0 0 -7843.42c0,-897.44 -164.81,-1529.3 -494.51,-1900.18 -329.66,-370.87 -792.11,-558.63 -1387.36,-558.63 -654.76,0 -1190.49,251.83 -1597.98,750.9 -407.53,503.66 -613.55,1401.11 -613.55,2701.45l0 6849.81 -5467.04 0 0 -14258.24 0.01 0.07zm33324.16 14258.24l-5105.32 0 0 -2298.51c-760.06,947.81 -1524.71,1620.88 -2293.95,2023.81 -773.81,402.93 -1721.61,604.4 -2847.99,604.4 -1501.84,0 -2673.98,-448.7 -3530.21,-1350.74 -851.64,-897.44 -1277.47,-2284.8 -1277.47,-4157.51l0 -9079.68 5494.51 0 0 7857.14c0,892.85 164.85,1529.3 494.51,1909.33 329.66,375.47 792.11,563.19 1387.36,563.19 645.61,0 1176.74,-251.83 1593.42,-750.9 412.09,-503.66 618.15,-1405.67 618.15,-2706.04l0 -6872.71 5467.04 0 0 14258.24 -0.05 -0.02zm19148.34 -5769.25l-10961.55 0c100.73,874.54 334.26,1529.3 714.29,1959.7 526.53,618.15 1217.95,924.91 2069.59,924.91 540.32,0 1053.14,-132.79 1533.9,-398.34 297.6,-169.41 618.15,-467.05 956.96,-892.85l5384.62 494.51c-824.17,1428.57 -1817.75,2458.8 -2980.78,3076.91 -1162.99,622.71 -2834.24,934.06 -5009.15,934.06 -1891.02,0 -3374.55,-265.58 -4459.71,-801.27 -1080.6,-531.13 -1978.04,-1378.2 -2692.33,-2536.63 -709.73,-1163.02 -1066.85,-2527.48 -1066.85,-4093.4 0,-2229.84 714.29,-4038.47 2142.86,-5416.68 1423.98,-1378.2 3397.42,-2069.59 5911.19,-2069.59 2042.12,0 3649.25,311.35 4830.59,929.46 1181.33,618.15 2083.33,1510.99 2701.48,2687.73 618.15,1172.14 924.91,2701.48 924.91,4583.35l0 618.15 -0.02 -0.02zm-5549.43 -2609.9c-105.29,-1062.26 -393.78,-1822.35 -856.23,-2280.21 -462.45,-457.89 -1066.85,-686.82 -1822.35,-686.82 -869.98,0 -1565.96,347.97 -2087.93,1039.39 -329.66,430.39 -540.28,1071.45 -631.86,1927.68l5398.33 0 0.04 -0.04zm5718.87 -5879.13l5682.22 0 2765.56 9033.87 2857.14 -9033.87 5508.24 0 -6043.93 14258.24 -4844.34 0 -5924.9 -14258.24 0.01 0zm17032.95 7170.32c0,-2179.47 732.59,-3974.36 2197.82,-5384.62 1465.19,-1410.26 3443.23,-2115.39 5934.05,-2115.39 2852.55,0 5004.59,828.77 6460.62,2486.27 1167.58,1336.99 1753.67,2980.78 1753.67,4931.32 0,2197.82 -723.44,3992.67 -2174.91,5398.33 -1451.47,1401.11 -3461.54,2101.64 -6025.63,2101.64 -2284.8,0 -4134.61,-581.49 -5544.87,-1749.08 -1735.33,-1442.32 -2600.71,-3333.34 -2600.71,-5668.51l-0.04 0.04zm5467.04 -9.16c0,1277.47 256.43,2220.68 769.25,2829.68 512.82,608.96 1153.83,915.75 1932.23,915.75 782.96,0 1423.98,-302.2 1927.68,-902 503.66,-599.8 755.5,-1565.96 755.5,-2893.79 0,-1240.85 -251.83,-2161.16 -760.06,-2770.16 -508.26,-604.4 -1135.53,-906.6 -1886.46,-906.6 -792.11,0 -1446.88,306.79 -1964.29,920.35 -517.41,618.15 -773.81,1552.21 -773.81,2806.77l-0.04 0zm-76762.81 17315.41l5682.22 0 2765.56 9033.87 2857.14 -9033.87 5508.25 0 -6043.94 14258.24 -4844.34 0 -5924.9 -14258.24 0.01 0zm33516.47 8488.99l-10961.55 0c100.73,874.54 334.26,1529.3 714.29,1959.7 526.53,618.15 1217.95,924.91 2069.59,924.91 540.32,0 1053.14,-132.79 1533.9,-398.34 297.6,-169.41 618.15,-467.05 956.96,-892.85l5384.62 494.51c-824.17,1428.57 -1817.75,2458.8 -2980.78,3076.91 -1162.99,622.71 -2834.24,934.06 -5009.15,934.06 -1891.02,0 -3374.55,-265.58 -4459.71,-801.27 -1080.6,-531.13 -1978.04,-1378.2 -2692.33,-2536.63 -709.73,-1163.02 -1066.85,-2527.48 -1066.85,-4093.4 0,-2229.84 714.29,-4038.47 2142.86,-5416.68 1423.98,-1378.2 3397.42,-2069.59 5911.19,-2069.59 2042.12,0 3649.25,311.35 4830.59,929.46 1181.33,618.15 2083.33,1510.99 2701.48,2687.73 618.15,1172.14 924.91,2701.48 924.91,4583.35l0 618.15 -0.02 -0.02zm-5549.44 -2609.9c-105.29,-1062.26 -393.78,-1822.35 -856.23,-2280.21 -462.45,-457.89 -1066.85,-686.82 -1822.35,-686.82 -869.98,0 -1565.96,347.97 -2087.93,1039.39 -329.66,430.39 -540.28,1071.45 -631.86,1927.68l5398.33 0 0.04 -0.04zm8104.41 -5879.13l5119.04 0 0 2326.01c494.51,-1011.89 1002.73,-1707.87 1524.74,-2087.89 526.57,-380.03 1172.14,-567.75 1941.39,-567.75 810.42,0 1694.15,251.83 2651.11,755.5l-1694.15 3878.22c-645.61,-270.14 -1158.43,-402.93 -1533.86,-402.93 -714.29,0 -1272.88,297.6 -1666.65,888.25 -563.19,833.33 -847.08,2394.69 -847.08,4679.49l0 4789.37 -5494.51 0 0 -14258.24 -0.03 -0.03zm17609.89 4615.37l-5219.77 -549.44c196.91,-915.75 480.76,-1634.6 851.64,-2156.6 370.87,-526.57 902,-979.87 1602.57,-1364.45 499.11,-279.3 1185.89,-494.51 2060.43,-645.61 874.54,-151.1 1822.35,-228.93 2843.43,-228.93 1634.63,0 2944.12,91.58 3937.74,274.74 989.02,183.16 1817.75,567.78 2477.11,1149.27 467.05,402.93 833.33,975.27 1098.91,1712.46 270.14,737.19 402.93,1442.32 402.93,2115.39l0 6300.37c0,673.07 41.21,1199.64 128.2,1579.67 82.42,380.03 270.14,865.38 554.03,1456.03l-5114.48 0c-206.03,-366.31 -338.82,-641.02 -402.93,-833.33 -59.52,-192.31 -123.64,-489.92 -187.72,-897.44 -714.29,686.82 -1423.98,1176.74 -2133.7,1469.78 -966.12,393.78 -2087.89,590.65 -3365.36,590.65 -1698.71,0 -2989.93,-393.78 -3869.06,-1185.89 -883.69,-787.55 -1323.24,-1762.83 -1323.24,-2916.66 0,-1085.16 315.95,-1978.04 952.37,-2678.58 636.46,-700.54 1808.6,-1222.51 3516.5,-1561.36 2046.72,-412.09 3374.55,-700.54 3983.51,-869.94 608.99,-164.85 1254.57,-380.03 1932.23,-650.2 0,-673.07 -137.39,-1140.12 -416.68,-1410.26 -274.74,-270.14 -760.06,-402.93 -1456.03,-402.93 -892.85,0 -1561.36,141.95 -2010.06,430.39 -347.97,228.93 -627.3,650.17 -842.48,1272.88l-0.09 -0.01zm4725.29 2857.14c-750.9,270.14 -1533.9,508.22 -2353.48,718.84 -1108.06,297.6 -1813.19,590.65 -2106.24,879.13 -306.79,297.6 -457.89,636.46 -457.89,1016.48 0,434.99 151.1,792.11 448.7,1066.85 302.2,274.74 741.75,412.09 1323.24,412.09 608.99,0 1176.74,-151.1 1703.31,-448.7 521.97,-297.6 892.85,-659.32 1112.66,-1089.75 219.77,-430.39 329.66,-989.02 329.66,-1675.81l0 -879.13 0.04 0zm8598.89 -7472.51l5091.56 0 0 2321.42c760.06,-952.37 1524.71,-1630.04 2303.11,-2037.56 778.4,-407.53 1721.61,-613.55 2838.83,-613.55 1510.99,0 2687.73,448.7 3543.96,1350.74 851.64,897.44 1277.47,2289.39 1277.47,4171.26l0 9065.93 -5494.51 0 0 -7843.42c0,-897.44 -164.81,-1529.3 -494.51,-1900.18 -329.66,-370.87 -792.11,-558.63 -1387.36,-558.63 -654.76,0 -1190.49,251.83 -1597.98,750.9 -407.53,503.66 -613.55,1401.11 -613.55,2701.45l0 6849.81 -5467.03 0 0 -14258.24 0.01 0.07zm17664.84 7170.32c0,-2179.47 732.59,-3974.36 2197.82,-5384.62 1465.19,-1410.26 3443.23,-2115.39 5934.05,-2115.39 2852.55,0 5004.59,828.77 6460.62,2486.27 1167.58,1336.99 1753.67,2980.78 1753.67,4931.32 0,2197.82 -723.44,3992.67 -2174.91,5398.33 -1451.47,1401.11 -3461.54,2101.64 -6025.63,2101.64 -2284.8,0 -4134.61,-581.49 -5544.87,-1749.08 -1735.33,-1442.32 -2600.71,-3333.34 -2600.71,-5668.51l-0.04 0.04zm5467.04 -9.16c0,1277.47 256.43,2220.68 769.25,2829.68 512.82,608.96 1153.83,915.75 1932.23,915.75 782.96,0 1423.98,-302.2 1927.68,-902 503.66,-599.8 755.5,-1565.96 755.5,-2893.79 0,-1240.85 -251.83,-2161.16 -760.06,-2770.16 -508.26,-604.4 -1135.53,-906.6 -1886.46,-906.6 -792.11,0 -1446.88,306.79 -1964.29,920.35 -517.41,618.15 -773.81,1552.21 -773.81,2806.77l-0.04 0z"/>
 </g>
</svg>
